<?xml version="1.0" encoding="UTF-8"?>
<svg xmlns="http://www.w3.org/2000/svg" id="Layer_1" data-name="Layer 1" viewBox="0 0 24 24">
  <path d="m12,11.999c2.206,0,4-1.794,4-4s-1.794-4-4-4-4,1.794-4,4,1.794,4,4,4Zm0-7c1.654,0,3,1.346,3,3s-1.346,3-3,3-3-1.346-3-3,1.346-3,3-3Zm10.142,5.654l-2.359-.79c.143-.603.217-1.227.217-1.863,0-2.137-.832-4.146-2.343-5.657S14.137,0,12,0s-4.146.832-5.657,2.343c-1.511,1.511-2.343,3.52-2.343,5.657,0,.471.04.935.12,1.389l-.531-.192c-.8-.333-1.71-.247-2.434.235-.723.482-1.154,1.288-1.154,2.156v10.128l7.484,2.26,9.021-2.159,7.494,2.185v-10.865c0-1.151-.773-2.175-1.858-2.484ZM7.05,3.05c1.322-1.322,3.08-2.05,4.95-2.05s3.627.728,4.95,2.05,2.05,3.08,2.05,4.95-.728,3.627-2.046,4.946l-4.954,4.845-4.95-4.841c-1.322-1.322-2.05-3.08-2.05-4.95s.728-3.627,2.05-4.95Zm15.95,19.619l-6.469-1.886-9.017,2.158-6.515-1.967v-9.386c0-.541.258-1.024.709-1.324.45-.3.995-.354,1.517-.136l1.191.43c.389,1.154,1.042,2.213,1.93,3.101l5.653,5.529,5.657-5.533c.819-.819,1.438-1.784,1.834-2.837l2.356.788c.679.194,1.154.823,1.154,1.529v9.532Z"/>
</svg>
